<svg width="32" height="32" viewBox="0 0 32 32" fill="none" xmlns="http://www.w3.org/2000/svg">
<path d="M22 12.002C22 10.4107 21.3679 8.88453 20.2426 7.75931C19.1174 6.63409 17.5913 6.00195 16 6.00195C14.4087 6.00195 12.8826 6.63409 11.7574 7.75931C10.6321 8.88453 10 10.4107 10 12.002C10 19.002 7 21.002 7 21.002H25C25 21.002 22 19.002 22 12.002Z" stroke="white" stroke-width="2" stroke-linecap="round" stroke-linejoin="round"/>
<path d="M17.73 25.002C17.5542 25.305 17.3019 25.5566 16.9982 25.7315C16.6946 25.9064 16.3504 25.9984 16 25.9984C15.6496 25.9984 15.3054 25.9064 15.0018 25.7315C14.6982 25.5566 14.4458 25.305 14.27 25.002" stroke="white" stroke-width="2" stroke-linecap="round" stroke-linejoin="round"/>
</svg>
