<svg width="38" height="31" viewBox="0 0 38 31" fill="none" xmlns="http://www.w3.org/2000/svg">
<path d="M28.6663 18.1857C28.9274 14.479 27.439 11.3543 25.3418 11.2065C23.2446 11.0588 21.3327 13.9439 21.0716 17.6507C20.8104 21.3574 22.2989 24.4821 24.3961 24.6298C26.4933 24.7776 28.4051 21.8925 28.6663 18.1857Z" fill="white"/>
<path d="M13.387 23.5409C15.3065 23.4057 16.6688 20.5458 16.4298 17.1532C16.1908 13.7605 14.441 11.1199 12.5215 11.2551C10.602 11.3904 9.23966 14.2503 9.47868 17.6429C9.7177 21.0355 11.4675 23.6762 13.387 23.5409Z" fill="white"/>
<path d="M37.5992 17.0907C37.3026 16.9215 36.1147 17.4237 35.3859 17.7319C35.1897 17.8148 35.0268 17.8837 34.9235 17.9217C33.8535 18.3518 32.8053 18.841 31.7671 19.3783C31.4482 19.5593 31.3855 19.3748 31.4052 19.0553C31.6104 14.5146 31.615 11.4992 31.4088 9.56948C31.3822 9.37564 31.3518 9.10231 31.3149 8.77C31.0404 6.29663 30.403 0.555806 28.2554 0.0037515C26.2638 -0.158827 23.8969 5.00716 23.0404 6.87669C23.0129 6.93675 22.9869 6.99341 22.9626 7.04638C22.8776 7.23895 22.8018 7.41484 22.724 7.60084C22.7022 7.65182 22.6968 7.67456 22.6831 7.68213C22.6671 7.69091 22.6399 7.67923 22.5628 7.66755C22.0947 7.5882 21.651 7.51845 21.1607 7.45123C19.5004 7.23592 18.3359 7.23592 16.676 7.45123C16.1853 7.51795 15.7425 7.5882 15.274 7.66755C15.1968 7.67897 15.1696 7.69068 15.1536 7.68193C15.1398 7.67441 15.1342 7.65177 15.1123 7.60084C15.0349 7.41484 14.9586 7.23895 14.8742 7.04638C14.8493 6.99224 14.8227 6.93424 14.7945 6.87269C13.936 4.99984 11.5715 -0.158222 9.58085 0.0037515C7.43342 0.555872 6.79585 6.29761 6.52122 8.77075C6.48436 9.10269 6.45404 9.37575 6.42749 9.56948C6.22228 11.4992 6.22633 14.5146 6.43203 19.0553C6.45225 19.3748 6.38857 19.5593 6.07015 19.3783C5.032 18.841 3.98374 18.3518 2.91325 17.9217C2.80984 17.8837 2.64682 17.8147 2.45054 17.7317C1.72194 17.4235 0.535046 16.9215 0.238016 17.0907C0.0904314 17.1539 -0.00762156 17.3111 0.000465284 17.4698C0.013101 17.7645 0.332531 17.8974 0.58474 17.9707C2.51446 18.6176 4.40274 19.3965 6.1591 20.4195C6.42193 20.5454 6.5776 20.796 6.5867 21.0862C6.6337 21.5714 6.6898 22.0374 6.74944 22.4685C6.82627 22.8309 6.51897 22.9567 6.23643 23.0492C6.0833 23.1082 5.93033 23.1663 5.77764 23.2243C5.07158 23.4925 4.37161 23.7584 3.69009 24.095C3.56171 24.1612 3.4303 24.2426 3.34842 24.3583C3.17556 24.5777 3.30344 24.9254 3.56879 24.985C3.77211 25.0322 3.97252 24.9358 4.158 24.8466C4.17724 24.8374 4.19632 24.8282 4.21523 24.8193C4.89995 24.4884 5.6042 24.2133 6.30992 23.9375C6.43873 23.8872 6.56758 23.8369 6.69637 23.7862C6.89854 23.728 7.01631 23.8807 7.05927 24.0748C7.12346 24.3143 7.19776 24.5332 7.2953 24.7475C9.12091 28.7853 13.9351 30.9602 18.7438 30.9996C18.8024 31.0001 19.0344 31.0001 19.092 30.9996C23.9001 30.9597 28.7148 28.7848 30.5404 24.7475C30.6385 24.5332 30.7123 24.3138 30.7775 24.0748C30.8199 23.8807 30.9377 23.728 31.1399 23.7862C31.277 23.8403 31.4143 23.8939 31.5515 23.9476C32.2485 24.2202 32.9445 24.4924 33.621 24.8193C33.6404 24.8284 33.66 24.8378 33.6797 24.8473C33.8651 24.9363 34.0646 25.0321 34.2675 24.985C34.5333 24.9254 34.6607 24.5777 34.4888 24.3583C34.4065 24.2426 34.275 24.1612 34.1467 24.095C33.46 23.7556 32.7542 23.4878 32.042 23.2175C31.895 23.1618 31.7478 23.1059 31.6003 23.0492C31.3188 22.9567 31.0105 22.8304 31.0873 22.4685C31.1469 22.0374 31.2025 21.5714 31.2506 21.0862C31.2602 20.7965 31.4148 20.5454 31.6776 20.4195C33.434 19.3965 35.3228 18.6176 37.252 17.9707C37.5047 17.8974 37.8242 17.7645 37.8368 17.4698C37.8449 17.3111 37.7468 17.1534 37.5992 17.0907ZM13.0789 22.1354C11.2543 22.1354 9.77544 20.2234 9.77544 17.8641C9.77544 15.5047 11.2543 13.5932 13.0789 13.5932C14.9035 13.5932 16.3814 15.5052 16.3814 17.8641C16.3814 20.2229 14.9025 22.1354 13.0789 22.1354ZM24.7583 22.185C22.9343 22.185 21.4559 20.2729 21.4559 17.9136C21.4559 15.5543 22.9348 13.6427 24.7583 13.6427C26.5819 13.6427 28.0608 15.5548 28.0608 17.9136C28.0608 20.2724 26.5819 22.185 24.7583 22.185Z" fill="#513879"/>
<path d="M37.5992 17.0907C37.3026 16.9215 36.1147 17.4237 35.3859 17.7319C35.1897 17.8148 35.0268 17.8837 34.9235 17.9217C33.8535 18.3518 32.8053 18.841 31.7671 19.3783C31.4482 19.5593 31.3855 19.3748 31.4052 19.0553C31.6104 14.5146 31.615 11.4992 31.4088 9.56948C31.3822 9.37564 31.3518 9.10231 31.3149 8.77C31.0404 6.29663 30.403 0.555806 28.2554 0.0037515C26.2638 -0.158827 23.8969 5.00716 23.0404 6.87669C23.0129 6.93675 22.9869 6.99341 22.9626 7.04638C22.8776 7.23895 22.8018 7.41484 22.724 7.60084C22.7022 7.65182 22.6968 7.67456 22.6831 7.68213C22.6671 7.69091 22.6399 7.67923 22.5628 7.66755C22.0947 7.5882 21.651 7.51845 21.1607 7.45123C19.5004 7.23592 18.3359 7.23592 16.676 7.45123C16.1853 7.51795 15.7425 7.5882 15.274 7.66755C15.1968 7.67897 15.1696 7.69068 15.1536 7.68193C15.1398 7.67441 15.1342 7.65177 15.1123 7.60084C15.0349 7.41484 14.9586 7.23895 14.8742 7.04638C14.8493 6.99224 14.8227 6.93424 14.7945 6.87269C13.936 4.99984 11.5715 -0.158222 9.58085 0.0037515C7.43342 0.555872 6.79585 6.29761 6.52122 8.77075C6.48436 9.10269 6.45404 9.37575 6.42749 9.56948C6.22228 11.4992 6.22633 14.5146 6.43203 19.0553C6.45225 19.3748 6.38857 19.5593 6.07015 19.3783C5.032 18.841 3.98374 18.3518 2.91325 17.9217C2.80984 17.8837 2.64682 17.8147 2.45054 17.7317C1.72194 17.4235 0.535046 16.9215 0.238016 17.0907C0.0904314 17.1539 -0.00762156 17.3111 0.000465284 17.4698C0.013101 17.7645 0.332531 17.8974 0.58474 17.9707C2.51446 18.6176 4.40274 19.3965 6.1591 20.4195C6.42193 20.5454 6.5776 20.796 6.5867 21.0862C6.6337 21.5714 6.6898 22.0374 6.74944 22.4685C6.82627 22.8309 6.51897 22.9567 6.23643 23.0492C6.0833 23.1082 5.93033 23.1663 5.77764 23.2243C5.07158 23.4925 4.37161 23.7584 3.69009 24.095C3.56171 24.1612 3.4303 24.2426 3.34842 24.3583C3.17556 24.5777 3.30344 24.9254 3.56879 24.985C3.77211 25.0322 3.97252 24.9358 4.158 24.8466C4.17724 24.8374 4.19632 24.8282 4.21523 24.8193C4.89995 24.4884 5.6042 24.2133 6.30992 23.9375C6.43873 23.8872 6.56758 23.8369 6.69637 23.7862C6.89854 23.728 7.01631 23.8807 7.05927 24.0748C7.12346 24.3143 7.19776 24.5332 7.2953 24.7475C9.12091 28.7853 13.9351 30.9602 18.7438 30.9996C18.8024 31.0001 19.0344 31.0001 19.092 30.9996C23.9001 30.9597 28.7148 28.7848 30.5404 24.7475C30.6385 24.5332 30.7123 24.3138 30.7775 24.0748C30.8199 23.8807 30.9377 23.728 31.1399 23.7862C31.277 23.8403 31.4143 23.8939 31.5515 23.9476C32.2485 24.2202 32.9445 24.4924 33.621 24.8193C33.6404 24.8284 33.66 24.8378 33.6797 24.8473C33.8651 24.9363 34.0646 25.0321 34.2675 24.985C34.5333 24.9254 34.6607 24.5777 34.4888 24.3583C34.4065 24.2426 34.275 24.1612 34.1467 24.095C33.46 23.7556 32.7542 23.4878 32.042 23.2175C31.895 23.1618 31.7478 23.1059 31.6003 23.0492C31.3188 22.9567 31.0105 22.8304 31.0873 22.4685C31.1469 22.0374 31.2025 21.5714 31.2506 21.0862C31.2602 20.7965 31.4148 20.5454 31.6776 20.4195C33.434 19.3965 35.3228 18.6176 37.252 17.9707C37.5047 17.8974 37.8242 17.7645 37.8368 17.4698C37.8449 17.3111 37.7468 17.1534 37.5992 17.0907ZM13.0789 22.1354C11.2543 22.1354 9.77544 20.2234 9.77544 17.8641C9.77544 15.5047 11.2543 13.5932 13.0789 13.5932C14.9035 13.5932 16.3814 15.5052 16.3814 17.8641C16.3814 20.2229 14.9025 22.1354 13.0789 22.1354ZM24.7583 22.185C22.9343 22.185 21.4559 20.2729 21.4559 17.9136C21.4559 15.5543 22.9348 13.6427 24.7583 13.6427C26.5819 13.6427 28.0608 15.5548 28.0608 17.9136C28.0608 20.2724 26.5819 22.185 24.7583 22.185Z" stroke="white"/>
<path d="M14.1295 19.986C14.927 19.9298 15.493 18.7416 15.3937 17.3321C15.2944 15.9226 14.5674 14.8255 13.7699 14.8817C12.9724 14.9379 12.4064 16.126 12.5057 17.5355C12.605 18.9451 13.332 20.0422 14.1295 19.986Z" fill="#513879"/>
<path d="M25.3319 17.5859C25.4312 16.1764 24.8653 14.9882 24.0678 14.932C23.2703 14.8758 22.5433 15.9729 22.444 17.3824C22.3447 18.7919 22.9107 19.9801 23.7082 20.0363C24.5056 20.0925 25.2326 18.9954 25.3319 17.5859Z" fill="#513879"/>
</svg>
