<svg width="21" height="21" viewBox="0 0 21 21" fill="none" xmlns="http://www.w3.org/2000/svg">
<path d="M5.11875 14.9625C5.8625 14.3938 6.69375 13.9453 7.6125 13.6172C8.53125 13.2891 9.49375 13.125 10.5 13.125C11.5063 13.125 12.4688 13.2891 13.3875 13.6172C14.3063 13.9453 15.1375 14.3938 15.8812 14.9625C16.3917 14.3646 16.7891 13.6865 17.0734 12.9281C17.3578 12.1698 17.5 11.3604 17.5 10.5C17.5 8.56042 16.8182 6.90885 15.4547 5.54531C14.0911 4.18177 12.4396 3.5 10.5 3.5C8.56042 3.5 6.90885 4.18177 5.54531 5.54531C4.18177 6.90885 3.5 8.56042 3.5 10.5C3.5 11.3604 3.64219 12.1698 3.92656 12.9281C4.21094 13.6865 4.60833 14.3646 5.11875 14.9625ZM10.5 11.375C9.63958 11.375 8.91406 11.0797 8.32344 10.4891C7.73281 9.89844 7.4375 9.17292 7.4375 8.3125C7.4375 7.45208 7.73281 6.72656 8.32344 6.13594C8.91406 5.54531 9.63958 5.25 10.5 5.25C11.3604 5.25 12.0859 5.54531 12.6766 6.13594C13.2672 6.72656 13.5625 7.45208 13.5625 8.3125C13.5625 9.17292 13.2672 9.89844 12.6766 10.4891C12.0859 11.0797 11.3604 11.375 10.5 11.375ZM10.5 19.25C9.28958 19.25 8.15208 19.0203 7.0875 18.5609C6.02292 18.1016 5.09687 17.4781 4.30938 16.6906C3.52187 15.9031 2.89844 14.9771 2.43906 13.9125C1.97969 12.8479 1.75 11.7104 1.75 10.5C1.75 9.28958 1.97969 8.15208 2.43906 7.0875C2.89844 6.02292 3.52187 5.09687 4.30938 4.30938C5.09687 3.52187 6.02292 2.89844 7.0875 2.43906C8.15208 1.97969 9.28958 1.75 10.5 1.75C11.7104 1.75 12.8479 1.97969 13.9125 2.43906C14.9771 2.89844 15.9031 3.52187 16.6906 4.30938C17.4781 5.09687 18.1016 6.02292 18.5609 7.0875C19.0203 8.15208 19.25 9.28958 19.25 10.5C19.25 11.7104 19.0203 12.8479 18.5609 13.9125C18.1016 14.9771 17.4781 15.9031 16.6906 16.6906C15.9031 17.4781 14.9771 18.1016 13.9125 18.5609C12.8479 19.0203 11.7104 19.25 10.5 19.25Z" fill="url(#paint0_linear_177_80)"/>
<defs>
<linearGradient id="paint0_linear_177_80" x1="10.5" y1="1.75" x2="10.5" y2="19.25" gradientUnits="userSpaceOnUse">
<stop stop-color="#D1ADF8"/>
<stop offset="1" stop-color="#513879"/>
</linearGradient>
</defs>
</svg>
