<svg aria-hidden="true" style="position: absolute; width: 0; height: 0; overflow: hidden;" version="1.1" xmlns="http://www.w3.org/2000/svg" xmlns:xlink="http://www.w3.org/1999/xlink">
<defs>
<symbol id="icon-tag" viewBox="0 0 32 32">
<path stroke-linejoin="round" stroke-linecap="round" stroke-miterlimit="4" stroke-width="3" d="M27.453 17.88l-9.56 9.56c-0.248 0.248-0.542 0.445-0.865 0.579s-0.671 0.203-1.021 0.203c-0.35 0-0.697-0.069-1.021-0.203s-0.618-0.331-0.865-0.579l-11.453-11.44v-13.333h13.333l11.453 11.453c0.497 0.5 0.775 1.175 0.775 1.88s-0.279 1.38-0.775 1.88z"></path>
<path stroke-linejoin="round" stroke-linecap="round" stroke-miterlimit="4" stroke-width="3" d="M9.334 9.333h0.013"></path>
</symbol>
<symbol id="icon-inbox" viewBox="0 0 32 32">
<path stroke-linejoin="round" stroke-linecap="round" stroke-miterlimit="4" stroke-width="3" d="M29.333 16h-8l-2.667 4h-5.333l-2.667-4h-8"></path>
<path stroke-linejoin="round" stroke-linecap="round" stroke-miterlimit="4" stroke-width="3" d="M7.266 6.813l-4.6 9.187v8c0 0.707 0.281 1.386 0.781 1.886s1.178 0.781 1.886 0.781h21.333c0.707 0 1.385-0.281 1.886-0.781s0.781-1.178 0.781-1.886v-8l-4.6-9.187c-0.221-0.444-0.561-0.818-0.983-1.080s-0.908-0.4-1.404-0.4h-12.693c-0.496 0-0.982 0.139-1.404 0.4s-0.762 0.635-0.983 1.080z"></path>
</symbol>
<symbol id="icon-layers" viewBox="0 0 32 32">
<path stroke-linejoin="round" stroke-linecap="round" stroke-miterlimit="4" stroke-width="3" d="M16 2.667l-13.333 6.667 13.333 6.667 13.333-6.667-13.333-6.667z"></path>
<path stroke-linejoin="round" stroke-linecap="round" stroke-miterlimit="4" stroke-width="3" d="M2.667 22.667l13.333 6.667 13.333-6.667"></path>
<path stroke-linejoin="round" stroke-linecap="round" stroke-miterlimit="4" stroke-width="3" d="M2.667 16l13.333 6.667 13.333-6.667"></path>
</symbol>
<symbol id="icon-x-modal" viewBox="0 0 32 32">
<path stroke-linejoin="round" stroke-linecap="round" stroke-miterlimit="4" stroke-width="2.6667" d="M24 8l-16 16"></path>
<path stroke-linejoin="round" stroke-linecap="round" stroke-miterlimit="4" stroke-width="2.6667" d="M8 8l16 16"></path>
</symbol>
<symbol id="icon-alert" viewBox="0 0 32 32">
<path stroke-linejoin="round" stroke-linecap="round" stroke-miterlimit="4" stroke-width="3" d="M13.72 5.147l-11.293 18.853c-0.233 0.403-0.356 0.86-0.357 1.326s0.119 0.924 0.35 1.328c0.231 0.404 0.563 0.742 0.964 0.978s0.857 0.363 1.323 0.368h22.587c0.466-0.005 0.922-0.132 1.323-0.368s0.734-0.573 0.964-0.978c0.231-0.405 0.351-0.862 0.35-1.328s-0.125-0.923-0.357-1.326l-11.293-18.853c-0.238-0.392-0.572-0.716-0.972-0.941s-0.85-0.343-1.308-0.343c-0.458 0-0.909 0.118-1.308 0.343s-0.734 0.549-0.972 0.941z"></path>
<path stroke-linejoin="round" stroke-linecap="round" stroke-miterlimit="4" stroke-width="3" d="M16 12v5.333"></path>
<path stroke-linejoin="round" stroke-linecap="round" stroke-miterlimit="4" stroke-width="3" d="M16 22.667h0.013"></path>
</symbol>
<symbol id="icon-chevron-down-2" viewBox="0 0 32 32">
<path stroke-linejoin="round" stroke-linecap="round" stroke-miterlimit="4" stroke-width="3" d="M8 14l8 8 8-8"></path>
</symbol>
<symbol id="icon-plus" viewBox="0 0 32 32">
<path stroke-linejoin="round" stroke-linecap="round" stroke-miterlimit="4" stroke-width="3" d="M16 6.667v18.667"></path>
<path stroke-linejoin="round" stroke-linecap="round" stroke-miterlimit="4" stroke-width="3" d="M6.667 16h18.667"></path>
</symbol>
<symbol id="icon-message-circle" viewBox="0 0 32 32">
<path stroke-linejoin="round" stroke-linecap="round" stroke-miterlimit="4" stroke-width="3" d="M28 15.333c0.005 1.76-0.407 3.496-1.2 5.067-0.941 1.882-2.387 3.466-4.177 4.572s-3.852 1.693-5.957 1.694c-1.76 0.004-3.496-0.407-5.067-1.2l-7.6 2.533 2.533-7.6c-0.793-1.571-1.205-3.307-1.2-5.067 0.001-2.104 0.587-4.167 1.694-5.957s2.69-3.236 4.572-4.177c1.571-0.793 3.307-1.205 5.067-1.2h0.667c2.779 0.153 5.404 1.326 7.372 3.294s3.141 4.593 3.294 7.372v0.667z"></path>
</symbol>
<symbol id="icon-heart" viewBox="0 0 32 32">
<path stroke-linejoin="round" stroke-linecap="round" stroke-miterlimit="4" stroke-width="3" d="M27.787 6.147c-0.681-0.681-1.49-1.222-2.379-1.591s-1.844-0.559-2.807-0.559-1.917 0.19-2.807 0.559c-0.89 0.369-1.699 0.909-2.38 1.591l-1.413 1.413-1.413-1.413c-1.376-1.376-3.241-2.148-5.187-2.148s-3.811 0.773-5.187 2.148c-1.376 1.376-2.148 3.241-2.148 5.187s0.773 3.811 2.148 5.187l11.787 11.787 11.787-11.787c0.681-0.681 1.222-1.49 1.591-2.38s0.559-1.844 0.559-2.807c0-0.963-0.19-1.917-0.559-2.807s-0.909-1.699-1.591-2.38z"></path>
</symbol>
<symbol id="icon-bookmark-1" viewBox="0 0 32 32">
<path stroke-linejoin="round" stroke-linecap="round" stroke-miterlimit="4" stroke-width="3" d="M25.333 28l-9.333-6.667-9.333 6.667v-21.333c0-0.707 0.281-1.386 0.781-1.886s1.178-0.781 1.886-0.781h13.333c0.707 0 1.386 0.281 1.886 0.781s0.781 1.178 0.781 1.886v21.333z"></path>
</symbol>
<symbol id="icon-trending-up" viewBox="0 0 32 32">
<path stroke-linejoin="round" stroke-linecap="round" stroke-miterlimit="4" stroke-width="3" d="M30.667 8l-12.667 12.667-6.667-6.667-10 10"></path>
<path stroke-linejoin="round" stroke-linecap="round" stroke-miterlimit="4" stroke-width="3" d="M22.667 8h8v8"></path>
</symbol>
<symbol id="icon-user" viewBox="0 0 32 32">
<path stroke-linejoin="round" stroke-linecap="round" stroke-miterlimit="4" stroke-width="3" d="M26.667 28v-2.667c0-1.415-0.562-2.771-1.562-3.771s-2.357-1.562-3.771-1.562h-10.667c-1.414 0-2.771 0.562-3.771 1.562s-1.562 2.357-1.562 3.771v2.667"></path>
<path stroke-linejoin="round" stroke-linecap="round" stroke-miterlimit="4" stroke-width="3" d="M16 14.667c2.946 0 5.333-2.388 5.333-5.333s-2.388-5.333-5.333-5.333c-2.946 0-5.333 2.388-5.333 5.333s2.388 5.333 5.333 5.333z"></path>
</symbol>
<symbol id="icon-edit" viewBox="0 0 32 32">
<path stroke-linejoin="round" stroke-linecap="round" stroke-miterlimit="4" stroke-width="3" d="M16 26.667h12"></path>
<path stroke-linejoin="round" stroke-linecap="round" stroke-miterlimit="4" stroke-width="3" d="M22 4.667c0.53-0.53 1.25-0.828 2-0.828 0.371 0 0.739 0.073 1.082 0.215s0.655 0.35 0.918 0.613c0.263 0.263 0.471 0.574 0.613 0.918s0.215 0.711 0.215 1.082-0.073 0.739-0.215 1.082c-0.142 0.343-0.351 0.655-0.613 0.918l-16.667 16.667-5.333 1.333 1.333-5.333 16.667-16.667z"></path>
</symbol>
<symbol id="icon-bell" viewBox="0 0 32 32">
<path stroke-linejoin="round" stroke-linecap="round" stroke-miterlimit="4" stroke-width="2" d="M22 12.002c0-1.591-0.632-3.117-1.757-4.243s-2.651-1.757-4.243-1.757-3.117 0.632-4.243 1.757c-1.125 1.125-1.757 2.651-1.757 4.243 0 7-3 9-3 9h18c0 0-3-2-3-9z"></path>
<path stroke-linejoin="round" stroke-linecap="round" stroke-miterlimit="4" stroke-width="2" d="M17.73 25.002c-0.176 0.303-0.428 0.555-0.732 0.73s-0.648 0.267-0.998 0.267-0.695-0.092-0.998-0.267c-0.304-0.175-0.556-0.426-0.732-0.73"></path>
</symbol>
<symbol id="icon-arrow-forward-simple" viewBox="0 0 32 32">
<path stroke-linejoin="round" stroke-linecap="round" stroke-miterlimit="4" stroke-width="1.7778" d="M26.667 20l-10.667-10.667-10.667 10.667"></path>
</symbol>
<symbol id="icon-message-square-2" viewBox="0 0 32 32">
<path stroke-linejoin="round" stroke-linecap="round" stroke-miterlimit="4" stroke-width="3.7647" d="M28 20c0 0.707-0.281 1.386-0.781 1.886s-1.178 0.781-1.886 0.781h-16l-5.333 5.333v-21.333c0-0.707 0.281-1.386 0.781-1.886s1.178-0.781 1.886-0.781h18.667c0.707 0 1.386 0.281 1.886 0.781s0.781 1.178 0.781 1.886v13.333z"></path>
</symbol>
<symbol id="icon-star" viewBox="0 0 32 32">
<path stroke-linejoin="round" stroke-linecap="round" stroke-miterlimit="4" stroke-width="3.7647" d="M16 2.667l4.12 8.347 9.213 1.347-6.667 6.493 1.573 9.173-8.24-4.333-8.24 4.333 1.573-9.173-6.667-6.493 9.213-1.347 4.12-8.347z"></path>
</symbol>
<symbol id="icon-message-square-3" viewBox="0 0 32 32">
<path stroke-linejoin="round" stroke-linecap="round" stroke-miterlimit="4" stroke-width="4.2667" d="M29.6 20.533c0 0.802-0.319 1.57-0.885 2.137s-1.335 0.885-2.137 0.885h-18.133l-6.044 6.044v-24.178c0-0.802 0.318-1.57 0.885-2.137s1.335-0.885 2.137-0.885h21.155c0.802 0 1.57 0.318 2.137 0.885s0.885 1.335 0.885 2.137v15.111z"></path>
</symbol>
<symbol id="icon-chevron-down-1" viewBox="0 0 32 32">
<path stroke-linejoin="round" stroke-linecap="round" stroke-miterlimit="4" stroke-width="3.3333" d="M8 12l8 8 8-8"></path>
</symbol>
<symbol id="icon-chevron-up-1" viewBox="0 0 32 32">
<path stroke-linejoin="round" stroke-linecap="round" stroke-miterlimit="4" stroke-width="3.3333" d="M24 20l-8-8-8 8"></path>
</symbol>
<symbol id="icon-icon-2" viewBox="0 0 32 32">
<path d="M29.333 12.32l-9.587-0.827-3.747-8.827-3.747 8.84-9.587 0.813 7.28 6.307-2.187 9.373 8.24-4.973 8.24 4.973-2.173-9.373 7.267-6.307zM16 20.533l-5.013 3.027 1.333-5.707-4.427-3.84 5.84-0.507 2.267-5.373 2.28 5.387 5.84 0.507-4.427 3.84 1.333 5.707-5.027-3.040z"></path>
</symbol>
<symbol id="icon-Bookmark" viewBox="0 0 32 32">
<path stroke-linejoin="round" stroke-linecap="round" stroke-miterlimit="4" stroke-width="3.3333" d="M25.333 28l-9.333-6.667-9.333 6.667v-21.333c0-0.707 0.281-1.386 0.781-1.886s1.178-0.781 1.886-0.781h13.333c0.707 0 1.385 0.281 1.886 0.781s0.781 1.178 0.781 1.886v21.333z"></path>
</symbol>
<symbol id="icon-chat-filled" viewBox="0 0 36 32">
<path d="M2.963 28.341v-23.188c0-0.709 0.29-1.315 0.87-1.82s1.278-0.757 2.093-0.757h23.704c0.815 0 1.512 0.252 2.093 0.757s0.87 1.111 0.87 1.82v15.459c0 0.709-0.29 1.315-0.87 1.82s-1.278 0.757-2.093 0.757h-20.741l-5.926 5.153z"></path>
</symbol>
<symbol id="icon-bookmark-filled" viewBox="0 0 34 32">
<path d="M7.143 27.391v-20.87c0-0.717 0.28-1.332 0.839-1.842s1.232-0.766 2.018-0.766h14.286c0.786 0 1.458 0.255 2.018 0.766s0.839 1.125 0.839 1.842v20.87l-10-3.913-10 3.913z"></path>
</symbol>
<symbol id="icon-icon-filled" viewBox="0 0 33 32">
<path d="M6.76 31.36l2.6-11.24-8.72-7.56 11.52-1 4.48-10.6 4.48 10.6 11.52 1-8.72 7.56 2.6 11.24-9.88-5.96-9.88 5.96z"></path>
</symbol>
<symbol id="icon-info" viewBox="0 0 32 32">
<path stroke-linejoin="round" stroke-linecap="round" stroke-miterlimit="4" stroke-width="3.3333" d="M16 21.333v-5.333M16 10.667h0.013M29.333 16c0 7.364-5.97 13.333-13.333 13.333s-13.333-5.97-13.333-13.333c0-7.364 5.97-13.333 13.333-13.333s13.333 5.97 13.333 13.333z"></path>
</symbol>
<symbol id="icon-settings" viewBox="0 0 32 32">
<path d="M12.334 29.333l-0.533-4.267c-0.289-0.111-0.561-0.244-0.817-0.4s-0.506-0.322-0.75-0.5l-3.967 1.667-3.667-6.333 3.433-2.6c-0.022-0.156-0.033-0.306-0.033-0.45v-0.9c0-0.144 0.011-0.294 0.033-0.45l-3.433-2.6 3.667-6.333 3.967 1.667c0.244-0.178 0.5-0.344 0.767-0.5s0.533-0.289 0.8-0.4l0.533-4.267h7.333l0.533 4.267c0.289 0.111 0.561 0.244 0.817 0.4s0.506 0.322 0.75 0.5l3.967-1.667 3.667 6.333-3.433 2.6c0.022 0.156 0.033 0.306 0.033 0.45v0.9c0 0.144-0.022 0.294-0.067 0.45l3.433 2.6-3.667 6.333-3.933-1.667c-0.244 0.178-0.5 0.344-0.767 0.5s-0.533 0.289-0.8 0.4l-0.533 4.267h-7.333zM14.667 26.667h2.633l0.467-3.533c0.689-0.178 1.328-0.439 1.917-0.783s1.128-0.761 1.617-1.25l3.3 1.367 1.3-2.267-2.867-2.167c0.111-0.311 0.189-0.639 0.233-0.983s0.067-0.694 0.067-1.050c0-0.356-0.022-0.706-0.067-1.050s-0.122-0.672-0.233-0.983l2.867-2.167-1.3-2.267-3.3 1.4c-0.489-0.511-1.028-0.939-1.617-1.283s-1.228-0.606-1.917-0.783l-0.433-3.533h-2.633l-0.467 3.533c-0.689 0.178-1.328 0.439-1.917 0.783s-1.128 0.761-1.617 1.25l-3.3-1.367-1.3 2.267 2.867 2.133c-0.111 0.333-0.189 0.667-0.233 1s-0.067 0.689-0.067 1.067c0 0.356 0.022 0.7 0.067 1.033s0.122 0.667 0.233 1l-2.867 2.167 1.3 2.267 3.3-1.4c0.489 0.511 1.028 0.939 1.617 1.283s1.228 0.606 1.917 0.783l0.433 3.533zM16.067 20.667c1.289 0 2.389-0.456 3.3-1.367s1.367-2.011 1.367-3.3c0-1.289-0.456-2.389-1.367-3.3s-2.011-1.367-3.3-1.367c-1.311 0-2.417 0.456-3.317 1.367s-1.35 2.011-1.35 3.3 0.45 2.389 1.35 3.3c0.9 0.911 2.006 1.367 3.317 1.367z"></path>
</symbol>
<symbol id="icon-arrow-up-circle" viewBox="0 0 32 32">
<path stroke-linejoin="round" stroke-linecap="round" stroke-miterlimit="4" stroke-width="3.3333" d="M21.333 16l-5.333-5.333M16 10.667l-5.333 5.333M16 10.667v10.667M29.333 16c0 7.364-5.97 13.333-13.333 13.333s-13.333-5.97-13.333-13.333c0-7.364 5.97-13.333 13.333-13.333s13.333 5.97 13.333 13.333z"></path>
</symbol>
<symbol id="icon-chevron-down" viewBox="0 0 32 32">
<path stroke-linejoin="round" stroke-linecap="round" stroke-miterlimit="4" stroke-width="6.1538" d="M8 12l8 8 8-8"></path>
</symbol>
<symbol id="icon-chevron-up" viewBox="0 0 32 32">
<path stroke-linejoin="round" stroke-linecap="round" stroke-miterlimit="4" stroke-width="4.9231" d="M24 20l-8-8-8 8"></path>
</symbol>
<symbol id="icon-finger" viewBox="0 0 32 32">
<path stroke-linejoin="round" stroke-linecap="round" stroke-miterlimit="10" stroke-width="1.3333" d="M14.719 19.245c-0.48-0.832-1.544-1.118-2.377-0.637s-1.118 1.544-0.637 2.377l2.9 5.023c2.402 4.161 7.723 5.587 11.883 3.184s5.587-7.723 3.184-11.883l-2.32-4.018c-0.48-0.832-1.545-1.118-2.377-0.637s-1.117 1.544-0.637 2.377l-0.58-1.005c-0.48-0.832-1.545-1.118-2.377-0.637s-1.118 1.545-0.637 2.377l-0.58-1.004c-0.48-0.832-1.544-1.118-2.377-0.637s-1.118 1.544-0.637 2.377l-4.060-7.031c-0.48-0.832-1.544-1.118-2.377-0.637s-1.118 1.544-0.637 2.377l4.64 8.036z"></path>
<path stroke-linejoin="round" stroke-linecap="round" stroke-miterlimit="10" stroke-width="1.3333" d="M4.151 21.056c-2.132-7.247 0.725-16.9 7.108-18.714"></path>
<path stroke-linejoin="round" stroke-linecap="round" stroke-miterlimit="10" stroke-width="1.3333" d="M2.019 20.854l2.288 1.664 1.977-2.152"></path>
<path stroke-linejoin="round" stroke-linecap="round" stroke-miterlimit="10" stroke-width="1.3333" d="M12.195 4.41l-0.238-2.766-2.83-0.947"></path>
</symbol>
<symbol id="icon-book-open" viewBox="0 0 32 32">
<path stroke-linejoin="round" stroke-linecap="round" stroke-miterlimit="4" stroke-width="1.3333" d="M16 9.333c0-1.415-0.562-2.771-1.562-3.771s-2.357-1.562-3.771-1.562h-8v20h9.333c1.061 0 2.078 0.421 2.828 1.172s1.172 1.768 1.172 2.828M16 9.333v18.667M16 9.333c0-1.415 0.562-2.771 1.562-3.771s2.357-1.562 3.771-1.562h8v20h-9.333c-1.061 0-2.078 0.421-2.828 1.172s-1.172 1.768-1.172 2.828"></path>
</symbol>
<symbol id="icon-dots" viewBox="0 0 32 32">
<path stroke-linejoin="round" stroke-linecap="round" stroke-miterlimit="4" stroke-width="3" d="M16 17.334c0.736 0 1.333-0.597 1.333-1.333s-0.597-1.333-1.333-1.333c-0.736 0-1.333 0.597-1.333 1.333s0.597 1.333 1.333 1.333z"></path>
<path stroke-linejoin="round" stroke-linecap="round" stroke-miterlimit="4" stroke-width="3" d="M25.334 17.334c0.736 0 1.333-0.597 1.333-1.333s-0.597-1.333-1.333-1.333c-0.736 0-1.333 0.597-1.333 1.333s0.597 1.333 1.333 1.333z"></path>
<path stroke-linejoin="round" stroke-linecap="round" stroke-miterlimit="4" stroke-width="3" d="M6.667 17.334c0.736 0 1.333-0.597 1.333-1.333s-0.597-1.333-1.333-1.333c-0.736 0-1.333 0.597-1.333 1.333s0.597 1.333 1.333 1.333z"></path>
</symbol>
<symbol id="icon-message-square" viewBox="0 0 32 32">
<path stroke-linejoin="round" stroke-linecap="round" stroke-miterlimit="4" stroke-width="3.3333" d="M28 20c0 0.707-0.281 1.385-0.781 1.886s-1.178 0.781-1.886 0.781h-16l-5.333 5.333v-21.333c0-0.707 0.281-1.386 0.781-1.886s1.178-0.781 1.886-0.781h18.667c0.707 0 1.385 0.281 1.886 0.781s0.781 1.178 0.781 1.886v13.333z"></path>
</symbol>
<symbol id="icon-star-2" viewBox="0 0 32 32">
<path stroke-linejoin="round" stroke-linecap="round" stroke-miterlimit="4" stroke-width="3.3333" d="M16 2.667l4.12 8.347 9.213 1.347-6.667 6.493 1.573 9.173-8.24-4.333-8.24 4.333 1.573-9.173-6.667-6.493 9.213-1.347 4.12-8.347z"></path>
</symbol>
<symbol id="icon-list-2" viewBox="0 0 32 32">
<path stroke-linejoin="round" stroke-linecap="round" stroke-miterlimit="4" stroke-width="3.3333" d="M10.667 8h17.333M10.667 16h17.333M10.667 24h17.333M4 8h0.013M4 16h0.013M4 24h0.013"></path>
</symbol>
<symbol id="icon-navigate_next-3" viewBox="0 0 32 32">
<path d="M16.8 16l-6.133-6.133 1.867-1.867 8 8-8 8-1.867-1.867 6.133-6.133z"></path>
</symbol>
<symbol id="icon-navigate_before" viewBox="0 0 32 32">
<path d="M18.667 24l-8-8 8-8 1.867 1.867-6.133 6.133 6.133 6.133-1.867 1.867z"></path>
</symbol>
<symbol id="icon-list-1" viewBox="0 0 34 32">
<path stroke-linejoin="round" stroke-linecap="round" stroke-miterlimit="4" stroke-width="4.4444" d="M11.259 8h18.296M11.259 16h18.296M11.259 24h18.296M4.222 8h0.014M4.222 16h0.014M4.222 24h0.014"></path>
</symbol>
<symbol id="icon-grid-1" viewBox="0 0 34 32">
<path stroke-linejoin="round" stroke-linecap="round" stroke-miterlimit="4" stroke-width="3.5556" d="M14.074 4h-9.852v9.333h9.852v-9.333z"></path>
<path stroke-linejoin="round" stroke-linecap="round" stroke-miterlimit="4" stroke-width="3.5556" d="M29.556 4h-9.852v9.333h9.852v-9.333z"></path>
<path stroke-linejoin="round" stroke-linecap="round" stroke-miterlimit="4" stroke-width="3.5556" d="M29.556 18.667h-9.852v9.333h9.852v-9.333z"></path>
<path stroke-linejoin="round" stroke-linecap="round" stroke-miterlimit="4" stroke-width="3.5556" d="M14.074 18.667h-9.852v9.333h9.852v-9.333z"></path>
</symbol>
<symbol id="icon-search" viewBox="0 0 32 32">
<path d="M26.133 28l-8.4-8.4c-0.667 0.533-1.433 0.956-2.3 1.267s-1.789 0.467-2.767 0.467c-2.422 0-4.472-0.839-6.15-2.517s-2.517-3.728-2.517-6.15c0-2.422 0.839-4.472 2.517-6.15s3.728-2.517 6.15-2.517c2.422 0 4.472 0.839 6.15 2.517s2.517 3.728 2.517 6.15c0 0.978-0.156 1.9-0.467 2.767s-0.733 1.633-1.267 2.3l8.4 8.4-1.867 1.867zM12.667 18.667c1.667 0 3.083-0.583 4.25-1.75s1.75-2.583 1.75-4.25c0-1.667-0.583-3.083-1.75-4.25s-2.583-1.75-4.25-1.75c-1.667 0-3.083 0.583-4.25 1.75s-1.75 2.583-1.75 4.25c0 1.667 0.583 3.083 1.75 4.25s2.583 1.75 4.25 1.75z"></path>
</symbol>
<symbol id="icon-delete" viewBox="0 0 32 32">
<path d="M9.333 28c-0.733 0-1.361-0.261-1.883-0.783s-0.783-1.15-0.783-1.883v-17.333h-1.333v-2.667h6.667v-1.333h8v1.333h6.667v2.667h-1.333v17.333c0 0.733-0.261 1.361-0.783 1.883s-1.15 0.783-1.883 0.783h-13.333zM22.667 8h-13.333v17.333h13.333v-17.333zM12 22.667h2.667v-12h-2.667v12zM17.333 22.667h2.667v-12h-2.667v12z"></path>
</symbol>
<symbol id="icon-arrow_down-1" viewBox="0 0 32 32">
<path d="M16.003 16.803l6.135-6.132 1.866 1.867-8.002 7.998-7.998-8.002 1.867-1.866 6.132 6.135z"></path>
</symbol>
<symbol id="icon-arrow-left" viewBox="0 0 32 32">
<path stroke-linejoin="round" stroke-linecap="round" stroke-miterlimit="4" stroke-width="3.2" d="M25.334 15.999h-18.667M6.667 15.999l9.333 9.333M6.667 15.999l9.333-9.333"></path>
</symbol>
<symbol id="icon-Arrow-right" viewBox="0 0 32 32">
<path stroke-linejoin="round" stroke-linecap="round" stroke-miterlimit="4" stroke-width="3.2" d="M6.667 15.999h18.667M25.334 15.999l-9.333-9.333M25.334 15.999l-9.333 9.333"></path>
</symbol>
<symbol id="icon-arrow_up-1" viewBox="0 0 32 32">
<path d="M16 15.2l-6.133 6.133-1.867-1.867 8-8 8 8-1.867 1.867-6.133-6.133z"></path>
</symbol>
<symbol id="icon-grid-bold" viewBox="0 0 34 32">
<path stroke-linejoin="round" stroke-linecap="round" stroke-miterlimit="4" stroke-width="4" d="M14.167 4h-9.917v9.333h9.917v-9.333z"></path>
<path stroke-linejoin="round" stroke-linecap="round" stroke-miterlimit="4" stroke-width="4" d="M29.75 4h-9.917v9.333h9.917v-9.333z"></path>
<path stroke-linejoin="round" stroke-linecap="round" stroke-miterlimit="4" stroke-width="4" d="M29.75 18.667h-9.917v9.333h9.917v-9.333z"></path>
<path stroke-linejoin="round" stroke-linecap="round" stroke-miterlimit="4" stroke-width="4" d="M14.167 18.667h-9.917v9.333h9.917v-9.333z"></path>
</symbol>
<symbol id="icon-list-bold" viewBox="0 0 34 32">
<path stroke-linejoin="round" stroke-linecap="round" stroke-miterlimit="4" stroke-width="5" d="M11.333 8h18.417M11.333 16h18.417M11.333 24h18.417M4.25 8h0.014M4.25 16h0.014M4.25 24h0.014"></path>
</symbol>
<symbol id="icon-user-plus" viewBox="0 0 32 32">
<path stroke-linejoin="round" stroke-linecap="round" stroke-miterlimit="4" stroke-width="3" d="M21.333 28v-2.667c0-1.415-0.562-2.771-1.562-3.771s-2.357-1.562-3.771-1.562h-9.333c-1.414 0-2.771 0.562-3.771 1.562s-1.562 2.357-1.562 3.771v2.667"></path>
<path stroke-linejoin="round" stroke-linecap="round" stroke-miterlimit="4" stroke-width="3" d="M11.333 14.667c2.946 0 5.333-2.388 5.333-5.333s-2.388-5.333-5.333-5.333c-2.946 0-5.333 2.388-5.333 5.333s2.388 5.333 5.333 5.333z"></path>
<path stroke-linejoin="round" stroke-linecap="round" stroke-miterlimit="4" stroke-width="3" d="M26.667 10.667v8"></path>
<path stroke-linejoin="round" stroke-linecap="round" stroke-miterlimit="4" stroke-width="3" d="M30.667 14.667h-8"></path>
</symbol>
<symbol id="icon-trash" viewBox="0 0 32 32">
<path stroke-linejoin="round" stroke-linecap="round" stroke-miterlimit="4" stroke-width="3" d="M4 8h24"></path>
<path stroke-linejoin="round" stroke-linecap="round" stroke-miterlimit="4" stroke-width="3" d="M25.333 8v18.667c0 0.707-0.281 1.386-0.781 1.886s-1.178 0.781-1.886 0.781h-13.333c-0.707 0-1.386-0.281-1.886-0.781s-0.781-1.178-0.781-1.886v-18.667M10.666 8v-2.667c0-0.707 0.281-1.386 0.781-1.886s1.178-0.781 1.886-0.781h5.333c0.707 0 1.386 0.281 1.886 0.781s0.781 1.178 0.781 1.886v2.667"></path>
</symbol>
<symbol id="icon-checkbox" viewBox="0 0 48 32">
<path stroke-linejoin="round" stroke-linecap="round" stroke-miterlimit="4" stroke-width="4" d="M44 4l-27.5 24-12.5-10.909"></path>
</symbol>
<symbol id="icon-checkbox-filled" viewBox="0 0 32 32">
<path d="M13.6 23.2l12.086-12.086-2.4-2.4-9.686 9.686-4.886-4.886-2.4 2.4 7.286 7.286zM4 31.429c-0.943 0-1.75-0.336-2.421-1.007s-1.007-1.479-1.007-2.422v-24c0-0.943 0.336-1.75 1.007-2.421s1.479-1.007 2.421-1.007h24c0.943 0 1.75 0.336 2.422 1.007s1.007 1.479 1.007 2.421v24c0 0.943-0.336 1.75-1.007 2.422s-1.479 1.007-2.422 1.007h-24z"></path>
</symbol>
<symbol id="icon-arrow-forward-simple-1" viewBox="0 0 32 32">
<path stroke-linejoin="round" stroke-linecap="round" stroke-miterlimit="4" stroke-width="1.7778" d="M12 26.667l10.667-10.667-10.667-10.667"></path>
</symbol>
<symbol id="icon-arrow-back-simple" viewBox="0 0 32 32">
<path stroke-linejoin="round" stroke-linecap="round" stroke-miterlimit="4" stroke-width="1.7778" d="M20 26.667l-10.667-10.667 10.667-10.667"></path>
</symbol>
<symbol id="icon-account-circle" viewBox="0 0 32 32">
<path d="M7.8 22.8c1.133-0.867 2.4-1.55 3.8-2.050s2.867-0.75 4.4-0.75c1.533 0 3 0.25 4.4 0.75s2.667 1.183 3.8 2.050c0.778-0.911 1.383-1.944 1.817-3.1s0.65-2.389 0.65-3.7c0-2.956-1.039-5.472-3.117-7.55s-4.594-3.117-7.55-3.117c-2.956 0-5.472 1.039-7.55 3.117s-3.117 4.594-3.117 7.55c0 1.311 0.217 2.544 0.65 3.7s1.039 2.189 1.817 3.1zM16 17.334c-1.311 0-2.417-0.45-3.317-1.35s-1.35-2.006-1.35-3.317c0-1.311 0.45-2.417 1.35-3.317s2.006-1.35 3.317-1.35c1.311 0 2.417 0.45 3.317 1.35s1.35 2.006 1.35 3.317c0 1.311-0.45 2.417-1.35 3.317s-2.006 1.35-3.317 1.35zM16 29.334c-1.844 0-3.578-0.35-5.2-1.050s-3.033-1.65-4.233-2.85c-1.2-1.2-2.15-2.611-2.85-4.233s-1.050-3.355-1.050-5.2c0-1.844 0.35-3.578 1.050-5.2s1.65-3.033 2.85-4.233c1.2-1.2 2.611-2.15 4.233-2.85s3.356-1.050 5.2-1.050c1.844 0 3.578 0.35 5.2 1.050s3.033 1.65 4.233 2.85c1.2 1.2 2.15 2.611 2.85 4.233s1.050 3.356 1.050 5.2c0 1.845-0.35 3.578-1.050 5.2s-1.65 3.033-2.85 4.233c-1.2 1.2-2.611 2.15-4.233 2.85s-3.356 1.050-5.2 1.050z"></path>
</symbol>
<symbol id="icon-google" viewBox="0 0 33 32">
<path d="M16.993 13.091v6.196h8.787c-0.386 1.993-1.544 3.68-3.28 4.815l5.299 4.029c3.087-2.793 4.868-6.895 4.868-11.767 0-1.135-0.104-2.225-0.297-3.273l-15.377-0z"></path>
<path d="M7.843 19.046l-1.195 0.897-4.23 3.229c2.686 5.222 8.193 8.829 14.575 8.829 4.408 0 8.104-1.425 10.805-3.869l-5.299-4.029c-1.455 0.96-3.31 1.542-5.507 1.542-4.245 0-7.852-2.807-9.143-6.589l-0.007-0.009z"></path>
<path d="M2.418 8.829c-1.113 2.153-1.751 4.582-1.751 7.171s0.638 5.018 1.751 7.171c0 0.014 5.432-4.131 5.432-4.131-0.327-0.96-0.52-1.978-0.52-3.040s0.193-2.080 0.52-3.040l-5.432-4.131z"></path>
<path d="M16.993 6.371c2.405 0 4.542 0.815 6.249 2.385l4.675-4.582c-2.835-2.589-6.516-4.175-10.924-4.175-6.382 0-11.889 3.593-14.575 8.829l5.432 4.131c1.291-3.782 4.898-6.589 9.143-6.589z"></path>
</symbol>
<symbol id="icon-settings-navbar" viewBox="0 0 32 32">
<path stroke-linejoin="round" stroke-linecap="round" stroke-miterlimit="4" stroke-width="2" d="M16 20c2.209 0 4-1.791 4-4s-1.791-4-4-4c-2.209 0-4 1.791-4 4s1.791 4 4 4z"></path>
<path stroke-linejoin="round" stroke-linecap="round" stroke-miterlimit="4" stroke-width="2" d="M25.867 20c-0.177 0.402-0.23 0.848-0.152 1.281s0.285 0.832 0.592 1.146l0.080 0.080c0.248 0.248 0.445 0.542 0.579 0.865s0.203 0.671 0.203 1.021-0.069 0.697-0.203 1.021c-0.134 0.324-0.331 0.618-0.579 0.865s-0.542 0.445-0.865 0.579c-0.324 0.134-0.671 0.203-1.021 0.203s-0.697-0.069-1.021-0.203c-0.324-0.134-0.618-0.331-0.865-0.579l-0.080-0.080c-0.314-0.307-0.713-0.514-1.146-0.592s-0.879-0.025-1.281 0.152c-0.394 0.169-0.731 0.45-0.968 0.807s-0.364 0.777-0.366 1.206v0.227c0 0.707-0.281 1.385-0.781 1.886s-1.178 0.781-1.886 0.781c-0.707 0-1.385-0.281-1.886-0.781s-0.781-1.178-0.781-1.886v-0.12c-0.010-0.441-0.153-0.869-0.41-1.228s-0.616-0.633-1.030-0.785c-0.402-0.177-0.848-0.23-1.281-0.152s-0.832 0.285-1.146 0.592l-0.080 0.080c-0.248 0.248-0.542 0.445-0.866 0.579s-0.671 0.203-1.021 0.203-0.697-0.069-1.021-0.203c-0.324-0.134-0.618-0.331-0.865-0.579s-0.445-0.542-0.579-0.865-0.203-0.671-0.203-1.021c0-0.35 0.069-0.697 0.203-1.021s0.331-0.618 0.579-0.865l0.080-0.080c0.307-0.314 0.514-0.713 0.592-1.146s0.026-0.879-0.152-1.281c-0.169-0.394-0.45-0.731-0.807-0.968s-0.777-0.364-1.206-0.366h-0.227c-0.707 0-1.386-0.281-1.886-0.781s-0.781-1.178-0.781-1.886c0-0.707 0.281-1.385 0.781-1.886s1.178-0.781 1.886-0.781h0.12c0.441-0.010 0.869-0.153 1.228-0.41s0.633-0.616 0.785-1.030c0.178-0.402 0.23-0.848 0.152-1.281s-0.285-0.832-0.592-1.146l-0.080-0.080c-0.248-0.248-0.445-0.542-0.579-0.866s-0.203-0.671-0.203-1.021c0-0.35 0.069-0.697 0.203-1.021s0.331-0.618 0.579-0.865c0.248-0.248 0.542-0.445 0.865-0.579s0.671-0.203 1.021-0.203c0.35 0 0.697 0.069 1.021 0.203s0.618 0.331 0.866 0.579l0.080 0.080c0.314 0.307 0.713 0.514 1.146 0.592s0.879 0.026 1.281-0.152h0.107c0.394-0.169 0.731-0.45 0.968-0.807s0.364-0.777 0.366-1.206v-0.227c0-0.707 0.281-1.386 0.781-1.886s1.178-0.781 1.886-0.781c0.707 0 1.385 0.281 1.886 0.781s0.781 1.178 0.781 1.886v0.12c0.002 0.429 0.129 0.848 0.366 1.206s0.573 0.638 0.968 0.807c0.402 0.178 0.848 0.23 1.281 0.152s0.832-0.285 1.146-0.592l0.080-0.080c0.248-0.248 0.542-0.445 0.865-0.579s0.671-0.203 1.021-0.203c0.35 0 0.697 0.069 1.021 0.203s0.618 0.331 0.865 0.579c0.248 0.248 0.445 0.542 0.579 0.865s0.203 0.671 0.203 1.021-0.069 0.697-0.203 1.021c-0.134 0.324-0.331 0.618-0.579 0.866l-0.080 0.080c-0.307 0.314-0.514 0.713-0.592 1.146s-0.025 0.879 0.152 1.281v0.107c0.169 0.394 0.45 0.731 0.807 0.968s0.777 0.364 1.206 0.366h0.227c0.707 0 1.385 0.281 1.886 0.781s0.781 1.178 0.781 1.886c0 0.707-0.281 1.385-0.781 1.886s-1.178 0.781-1.886 0.781h-0.12c-0.429 0.002-0.848 0.129-1.206 0.366s-0.638 0.573-0.807 0.968z"></path>
</symbol>
<symbol id="icon-book-navbar" viewBox="0 0 32 32">
<path d="M27.013 19.773v-10.773c0-2.761-2.239-5-5-5h-11.68c-2.761 0-5 2.239-5 5v14.053c0 2.364 1.916 4.28 4.28 4.28h16.4c0.552 0 1-0.448 1-1s-0.448-1-1-1h-16.4c-1.259 0-2.28-1.021-2.28-2.28s1.021-2.28 2.28-2.28h16.4c0.552 0 1-0.448 1-1zM7.333 19.44v-10.44c0-1.657 1.343-3 3-3h11.68c1.657 0 3 1.343 3 3v9.773h-15.4c-0.808 0.002-1.598 0.233-2.28 0.667z"></path>
<path d="M8.613 23.053c0-0.552 0.448-1 1-1h14.76c0.552 0 1 0.448 1 1s-0.448 1-1 1h-14.76c-0.552 0-1-0.448-1-1z"></path>
</symbol>
<symbol id="icon-two-person-navbar" viewBox="0 0 32 32">
<path d="M28.987 19.654l0.187 0.92c0.203 0.786 0.037 1.622-0.45 2.271s-1.245 1.040-2.056 1.063h-5.080c0.001 2.158-1.71 3.928-3.867 4h-11.053c-1.221-0.020-2.365-0.597-3.108-1.565s-1.003-2.224-0.705-3.408l0.28-1.333c0.326-1.837 1.908-3.184 3.773-3.213h10.587c0.472-0.565 1.17-0.892 1.907-0.893h7.053c1.245 0.040 2.297 0.937 2.533 2.16zM26.64 21.894c0.163-0.006 0.314-0.084 0.413-0.213 0.174-0.176 0.262-0.42 0.24-0.667l-0.187-0.92c-0.036-0.298-0.275-0.531-0.573-0.56h-7.053c-0.153 0.001-0.297 0.075-0.387 0.2-0.382 0.44-0.937 0.693-1.52 0.693h-10.587c-0.913 0.022-1.678 0.697-1.813 1.6l-0.28 1.333c-0.137 0.657 0.024 1.34 0.44 1.867 0.325 0.409 0.811 0.658 1.333 0.68h11.013c1.073-0.071 1.898-0.978 1.867-2.053 0.022-1.089 0.911-1.96 2-1.96h5.093z"></path>
<path d="M17.467 10.667c0 2.946-2.388 5.333-5.333 5.333s-5.333-2.388-5.333-5.333v-2.093c0-2.474 2.006-4.48 4.48-4.48h1.747c2.459 0.022 4.44 2.021 4.44 4.48v2.093zM11.28 6.094c-1.37 0-2.48 1.11-2.48 2.48l0.040 2.093c0.213 1.679 1.641 2.938 3.333 2.938s3.121-1.259 3.333-2.938v-2.093c0-1.37-1.11-2.48-2.48-2.48h-1.747z"></path>
<path d="M27.573 11c0 2.209-1.791 4-4 4s-4-1.791-4-4v-1.533c-0-1.835 1.472-3.331 3.307-3.36h1.333c1.856 0 3.36 1.504 3.36 3.36v1.533zM22.907 8.134c-0.736 0-1.333 0.597-1.333 1.333v1.533c0 1.105 0.895 2 2 2s2-0.895 2-2v-1.533c0-0.736-0.597-1.333-1.333-1.333h-1.333z"></path>
</symbol>
<symbol id="icon-home-navbar" viewBox="0 0 32 32">
<path d="M27.053 9.334l-7.413-5.48c-2.169-1.583-5.111-1.583-7.28 0l-7.4 5.48c-1.433 1.032-2.285 2.688-2.293 4.453v9.907c0.080 3.191 2.729 5.715 5.92 5.64h14.827c3.191 0.075 5.84-2.449 5.92-5.64v-9.92c-0.011-1.758-0.858-3.406-2.28-4.44zM27.333 23.694c-0.079 2.087-1.833 3.715-3.92 3.64h-14.827c-2.084 0.068-3.833-1.557-3.92-3.64v-9.907c0.007-1.133 0.558-2.195 1.48-2.853l7.4-5.467c1.461-1.067 3.445-1.067 4.907 0l7.4 5.48c0.922 0.647 1.473 1.7 1.48 2.827v9.92zM10 21.001h12c0.552 0 1 0.448 1 1s-0.448 1-1 1h-12c-0.552 0-1-0.448-1-1s0.448-1 1-1z"></path>
</symbol>
<symbol id="icon-telegram" viewBox="0 0 32 32">
<path d="M13.040 24.867l0.373-5.64 10.24-9.227c0.453-0.413-0.093-0.613-0.693-0.253l-12.64 7.987-5.467-1.733c-1.173-0.333-1.187-1.147 0.267-1.733l21.293-8.213c0.973-0.44 1.907 0.24 1.533 1.733l-3.627 17.080c-0.253 1.213-0.987 1.507-2 0.947l-5.52-4.080-2.653 2.573c-0.307 0.307-0.56 0.56-1.107 0.56z"></path>
</symbol>
<symbol id="icon-tiktok" viewBox="0 0 32 32">
<path d="M26.119 8.915c-2.714-0.596-4.759-2.855-5.025-5.634l-0.002-0.026v-0.588h-4.593v18.229c-0.008 2.127-1.734 3.848-3.861 3.848-1.25 0-2.361-0.594-3.067-1.514l-0.007-0.009c-0.491-0.641-0.786-1.453-0.786-2.335 0-2.132 1.728-3.86 3.86-3.86 0.418 0 0.821 0.066 1.198 0.189l-0.027-0.008v-4.667c-0.347-0.051-0.748-0.079-1.156-0.079-4.661 0-8.439 3.778-8.439 8.439 0 2.296 0.917 4.377 2.404 5.898l-0.002-0.002c1.534 1.568 3.671 2.541 6.036 2.541 4.661 0 8.44-3.778 8.44-8.439v-9.315c1.761 1.272 3.964 2.035 6.345 2.035 0.007 0 0.014 0 0.020-0h-0.001v-4.564c-0.002 0-0.005 0-0.008 0-0.471 0-0.93-0.050-1.372-0.146l0.042 0.008z"></path>
</symbol>
</defs>
</svg>
